<?xml version="1.0" encoding="utf-8" standalone="no"?>
<!DOCTYPE svg PUBLIC "-//W3C//DTD SVG 1.1//EN"
  "http://www.w3.org/Graphics/SVG/1.1/DTD/svg11.dtd">
<svg xmlns:xlink="http://www.w3.org/1999/xlink" width="856.8pt" height="712.8pt" viewBox="0 0 856.8 712.8" xmlns="http://www.w3.org/2000/svg" version="1.1">
 <metadata>
  <rdf:RDF xmlns:dc="http://purl.org/dc/elements/1.1/" xmlns:cc="http://creativecommons.org/ns#" xmlns:rdf="http://www.w3.org/1999/02/22-rdf-syntax-ns#">
   <cc:Work>
    <dc:type rdf:resource="http://purl.org/dc/dcmitype/StillImage"/>
    <dc:date>2026-01-23T17:30:17.934749</dc:date>
    <dc:format>image/svg+xml</dc:format>
    <dc:creator>
     <cc:Agent>
      <dc:title>Matplotlib v3.10.8, https://matplotlib.org/</dc:title>
     </cc:Agent>
    </dc:creator>
   </cc:Work>
  </rdf:RDF>
 </metadata>
 <defs>
  <style type="text/css">*{stroke-linejoin: round; stroke-linecap: butt}</style>
 </defs>
 <g id="figure_1">
  <g id="patch_1">
   <path d="M 0 712.8 
L 856.8 712.8 
L 856.8 0 
L 0 0 
z
" style="fill: #ffffff"/>
  </g>
  <g id="axes_1">
   <g id="patch_2">
    <path d="M 154.62 164.34 
L 702.18 164.34 
Q 712.71 164.34 712.71 153.864 
L 712.71 84.024 
Q 712.71 73.548 702.18 73.548 
L 154.62 73.548 
Q 144.09 73.548 144.09 84.024 
L 144.09 153.864 
Q 144.09 164.34 154.62 164.34 
z
" clip-path="url(#pf97e9eb9bf)" style="fill: #e3f2fd; stroke: #37474f; stroke-width: 2; stroke-linejoin: miter"/>
   </g>
   <g id="patch_3">
    <path d="M 154.62 290.052 
L 702.18 290.052 
Q 712.71 290.052 712.71 279.576 
L 712.71 230.688 
Q 712.71 220.212 702.18 220.212 
L 154.62 220.212 
Q 144.09 220.212 144.09 230.688 
L 144.09 279.576 
Q 144.09 290.052 154.62 290.052 
z
" clip-path="url(#pf97e9eb9bf)" style="fill: #fff9c4; stroke: #37474f; stroke-width: 2; stroke-linejoin: miter"/>
   </g>
   <g id="patch_4">
    <path d="M 84.42 534.492 
L 772.38 534.492 
Q 782.91 534.492 782.91 524.016 
L 782.91 363.384 
Q 782.91 352.908 772.38 352.908 
L 84.42 352.908 
Q 73.89 352.908 73.89 363.384 
L 73.89 524.016 
Q 73.89 534.492 84.42 534.492 
z
" clip-path="url(#pf97e9eb9bf)" style="fill: #e8f5e9; stroke: #37474f; stroke-width: 2; stroke-linejoin: miter"/>
   </g>
   <g id="patch_5">
    <path d="M 119.52 513.54 
L 259.92 513.54 
Q 270.45 513.54 270.45 503.064 
L 270.45 461.16 
Q 270.45 450.684 259.92 450.684 
L 119.52 450.684 
Q 108.99 450.684 108.99 461.16 
L 108.99 503.064 
Q 108.99 513.54 119.52 513.54 
z
" clip-path="url(#pf97e9eb9bf)" style="fill: #ffffff; stroke: #37474f; stroke-width: 2; stroke-linejoin: miter"/>
   </g>
   <g id="patch_6">
    <path d="M 288 513.54 
L 428.4 513.54 
Q 438.93 513.54 438.93 503.064 
L 438.93 461.16 
Q 438.93 450.684 428.4 450.684 
L 288 450.684 
Q 277.47 450.684 277.47 461.16 
L 277.47 503.064 
Q 277.47 513.54 288 513.54 
z
" clip-path="url(#pf97e9eb9bf)" style="fill: #ffffff; stroke: #37474f; stroke-width: 2; stroke-linejoin: miter"/>
   </g>
   <g id="patch_7">
    <path d="M 456.48 513.54 
L 596.88 513.54 
Q 607.41 513.54 607.41 503.064 
L 607.41 461.16 
Q 607.41 450.684 596.88 450.684 
L 456.48 450.684 
Q 445.95 450.684 445.95 461.16 
L 445.95 503.064 
Q 445.95 513.54 456.48 513.54 
z
" clip-path="url(#pf97e9eb9bf)" style="fill: #ffffff; stroke: #37474f; stroke-width: 2; stroke-linejoin: miter"/>
   </g>
   <g id="patch_8">
    <path d="M 624.96 513.54 
L 765.36 513.54 
Q 775.89 513.54 775.89 503.064 
L 775.89 461.16 
Q 775.89 450.684 765.36 450.684 
L 624.96 450.684 
Q 614.43 450.684 614.43 461.16 
L 614.43 503.064 
Q 614.43 513.54 624.96 513.54 
z
" clip-path="url(#pf97e9eb9bf)" style="fill: #ffffff; stroke: #37474f; stroke-width: 2; stroke-linejoin: miter"/>
   </g>
   <g id="patch_9">
    <path d="M 154.62 688.14 
L 702.18 688.14 
Q 712.71 688.14 712.71 677.664 
L 712.71 607.824 
Q 712.71 597.348 702.18 597.348 
L 154.62 597.348 
Q 144.09 597.348 144.09 607.824 
L 144.09 677.664 
Q 144.09 688.14 154.62 688.14 
z
" clip-path="url(#pf97e9eb9bf)" style="fill: #f3e5f5; stroke: #37474f; stroke-width: 2; stroke-linejoin: miter"/>
   </g>
   <g id="text_1">
    <!-- NexaraVision Software Stack -->
    <g transform="translate(297.54875 42.12) scale(0.16 -0.16)">
     <defs>
      <path id="DejaVuSans-Bold-4e" d="M 588 4666 
L 1931 4666 
L 3628 1466 
L 3628 4666 
L 4769 4666 
L 4769 0 
L 3425 0 
L 1728 3200 
L 1728 0 
L 588 0 
L 588 4666 
z
" transform="scale(0.015625)"/>
      <path id="DejaVuSans-Bold-65" d="M 4031 1759 
L 4031 1441 
L 1416 1441 
Q 1456 1047 1700 850 
Q 1944 653 2381 653 
Q 2734 653 3104 758 
Q 3475 863 3866 1075 
L 3866 213 
Q 3469 63 3072 -14 
Q 2675 -91 2278 -91 
Q 1328 -91 801 392 
Q 275 875 275 1747 
Q 275 2603 792 3093 
Q 1309 3584 2216 3584 
Q 3041 3584 3536 3087 
Q 4031 2591 4031 1759 
z
M 2881 2131 
Q 2881 2450 2695 2645 
Q 2509 2841 2209 2841 
Q 1884 2841 1681 2658 
Q 1478 2475 1428 2131 
L 2881 2131 
z
" transform="scale(0.015625)"/>
      <path id="DejaVuSans-Bold-78" d="M 1422 1791 
L 159 3500 
L 1344 3500 
L 2059 2463 
L 2784 3500 
L 3969 3500 
L 2706 1797 
L 4031 0 
L 2847 0 
L 2059 1106 
L 1281 0 
L 97 0 
L 1422 1791 
z
" transform="scale(0.015625)"/>
      <path id="DejaVuSans-Bold-61" d="M 2106 1575 
Q 1756 1575 1579 1456 
Q 1403 1338 1403 1106 
Q 1403 894 1545 773 
Q 1688 653 1941 653 
Q 2256 653 2472 879 
Q 2688 1106 2688 1447 
L 2688 1575 
L 2106 1575 
z
M 3816 1997 
L 3816 0 
L 2688 0 
L 2688 519 
Q 2463 200 2181 54 
Q 1900 -91 1497 -91 
Q 953 -91 614 226 
Q 275 544 275 1050 
Q 275 1666 698 1953 
Q 1122 2241 2028 2241 
L 2688 2241 
L 2688 2328 
Q 2688 2594 2478 2717 
Q 2269 2841 1825 2841 
Q 1466 2841 1156 2769 
Q 847 2697 581 2553 
L 581 3406 
Q 941 3494 1303 3539 
Q 1666 3584 2028 3584 
Q 2975 3584 3395 3211 
Q 3816 2838 3816 1997 
z
" transform="scale(0.015625)"/>
      <path id="DejaVuSans-Bold-72" d="M 3138 2547 
Q 2991 2616 2845 2648 
Q 2700 2681 2553 2681 
Q 2122 2681 1889 2404 
Q 1656 2128 1656 1613 
L 1656 0 
L 538 0 
L 538 3500 
L 1656 3500 
L 1656 2925 
Q 1872 3269 2151 3426 
Q 2431 3584 2822 3584 
Q 2878 3584 2943 3579 
Q 3009 3575 3134 3559 
L 3138 2547 
z
" transform="scale(0.015625)"/>
      <path id="DejaVuSans-Bold-56" d="M 31 4666 
L 1241 4666 
L 2478 1222 
L 3713 4666 
L 4922 4666 
L 3194 0 
L 1759 0 
L 31 4666 
z
" transform="scale(0.015625)"/>
      <path id="DejaVuSans-Bold-69" d="M 538 3500 
L 1656 3500 
L 1656 0 
L 538 0 
L 538 3500 
z
M 538 4863 
L 1656 4863 
L 1656 3950 
L 538 3950 
L 538 4863 
z
" transform="scale(0.015625)"/>
      <path id="DejaVuSans-Bold-73" d="M 3272 3391 
L 3272 2541 
Q 2913 2691 2578 2766 
Q 2244 2841 1947 2841 
Q 1628 2841 1473 2761 
Q 1319 2681 1319 2516 
Q 1319 2381 1436 2309 
Q 1553 2238 1856 2203 
L 2053 2175 
Q 2913 2066 3209 1816 
Q 3506 1566 3506 1031 
Q 3506 472 3093 190 
Q 2681 -91 1863 -91 
Q 1516 -91 1145 -36 
Q 775 19 384 128 
L 384 978 
Q 719 816 1070 734 
Q 1422 653 1784 653 
Q 2113 653 2278 743 
Q 2444 834 2444 1013 
Q 2444 1163 2330 1236 
Q 2216 1309 1875 1350 
L 1678 1375 
Q 931 1469 631 1722 
Q 331 1975 331 2491 
Q 331 3047 712 3315 
Q 1094 3584 1881 3584 
Q 2191 3584 2531 3537 
Q 2872 3491 3272 3391 
z
" transform="scale(0.015625)"/>
      <path id="DejaVuSans-Bold-6f" d="M 2203 2784 
Q 1831 2784 1636 2517 
Q 1441 2250 1441 1747 
Q 1441 1244 1636 976 
Q 1831 709 2203 709 
Q 2569 709 2762 976 
Q 2956 1244 2956 1747 
Q 2956 2250 2762 2517 
Q 2569 2784 2203 2784 
z
M 2203 3584 
Q 3106 3584 3614 3096 
Q 4122 2609 4122 1747 
Q 4122 884 3614 396 
Q 3106 -91 2203 -91 
Q 1297 -91 786 396 
Q 275 884 275 1747 
Q 275 2609 786 3096 
Q 1297 3584 2203 3584 
z
" transform="scale(0.015625)"/>
      <path id="DejaVuSans-Bold-6e" d="M 4056 2131 
L 4056 0 
L 2931 0 
L 2931 347 
L 2931 1631 
Q 2931 2084 2911 2256 
Q 2891 2428 2841 2509 
Q 2775 2619 2662 2680 
Q 2550 2741 2406 2741 
Q 2056 2741 1856 2470 
Q 1656 2200 1656 1722 
L 1656 0 
L 538 0 
L 538 3500 
L 1656 3500 
L 1656 2988 
Q 1909 3294 2193 3439 
Q 2478 3584 2822 3584 
Q 3428 3584 3742 3212 
Q 4056 2841 4056 2131 
z
" transform="scale(0.015625)"/>
      <path id="DejaVuSans-Bold-20" transform="scale(0.015625)"/>
      <path id="DejaVuSans-Bold-53" d="M 3834 4519 
L 3834 3531 
Q 3450 3703 3084 3790 
Q 2719 3878 2394 3878 
Q 1963 3878 1756 3759 
Q 1550 3641 1550 3391 
Q 1550 3203 1689 3098 
Q 1828 2994 2194 2919 
L 2706 2816 
Q 3484 2659 3812 2340 
Q 4141 2022 4141 1434 
Q 4141 663 3683 286 
Q 3225 -91 2284 -91 
Q 1841 -91 1394 -6 
Q 947 78 500 244 
L 500 1259 
Q 947 1022 1364 901 
Q 1781 781 2169 781 
Q 2563 781 2772 912 
Q 2981 1044 2981 1288 
Q 2981 1506 2839 1625 
Q 2697 1744 2272 1838 
L 1806 1941 
Q 1106 2091 782 2419 
Q 459 2747 459 3303 
Q 459 4000 909 4375 
Q 1359 4750 2203 4750 
Q 2588 4750 2994 4692 
Q 3400 4634 3834 4519 
z
" transform="scale(0.015625)"/>
      <path id="DejaVuSans-Bold-66" d="M 2841 4863 
L 2841 4128 
L 2222 4128 
Q 1984 4128 1890 4042 
Q 1797 3956 1797 3744 
L 1797 3500 
L 2753 3500 
L 2753 2700 
L 1797 2700 
L 1797 0 
L 678 0 
L 678 2700 
L 122 2700 
L 122 3500 
L 678 3500 
L 678 3744 
Q 678 4316 997 4589 
Q 1316 4863 1984 4863 
L 2841 4863 
z
" transform="scale(0.015625)"/>
      <path id="DejaVuSans-Bold-74" d="M 1759 4494 
L 1759 3500 
L 2913 3500 
L 2913 2700 
L 1759 2700 
L 1759 1216 
Q 1759 972 1856 886 
Q 1953 800 2241 800 
L 2816 800 
L 2816 0 
L 1856 0 
Q 1194 0 917 276 
Q 641 553 641 1216 
L 641 2700 
L 84 2700 
L 84 3500 
L 641 3500 
L 641 4494 
L 1759 4494 
z
" transform="scale(0.015625)"/>
      <path id="DejaVuSans-Bold-77" d="M 225 3500 
L 1313 3500 
L 1900 1088 
L 2491 3500 
L 3425 3500 
L 4013 1113 
L 4603 3500 
L 5691 3500 
L 4769 0 
L 3547 0 
L 2956 2406 
L 2369 0 
L 1147 0 
L 225 3500 
z
" transform="scale(0.015625)"/>
      <path id="DejaVuSans-Bold-63" d="M 3366 3391 
L 3366 2478 
Q 3138 2634 2908 2709 
Q 2678 2784 2431 2784 
Q 1963 2784 1702 2511 
Q 1441 2238 1441 1747 
Q 1441 1256 1702 982 
Q 1963 709 2431 709 
Q 2694 709 2930 787 
Q 3166 866 3366 1019 
L 3366 103 
Q 3103 6 2833 -42 
Q 2563 -91 2291 -91 
Q 1344 -91 809 395 
Q 275 881 275 1747 
Q 275 2613 809 3098 
Q 1344 3584 2291 3584 
Q 2566 3584 2833 3536 
Q 3100 3488 3366 3391 
z
" transform="scale(0.015625)"/>
      <path id="DejaVuSans-Bold-6b" d="M 538 4863 
L 1656 4863 
L 1656 2216 
L 2944 3500 
L 4244 3500 
L 2534 1894 
L 4378 0 
L 3022 0 
L 1656 1459 
L 1656 0 
L 538 0 
L 538 4863 
z
" transform="scale(0.015625)"/>
     </defs>
     <use xlink:href="#DejaVuSans-Bold-4e"/>
     <use xlink:href="#DejaVuSans-Bold-65" transform="translate(83.691406 0)"/>
     <use xlink:href="#DejaVuSans-Bold-78" transform="translate(151.513672 0)"/>
     <use xlink:href="#DejaVuSans-Bold-61" transform="translate(216.015625 0)"/>
     <use xlink:href="#DejaVuSans-Bold-72" transform="translate(283.496094 0)"/>
     <use xlink:href="#DejaVuSans-Bold-61" transform="translate(332.8125 0)"/>
     <use xlink:href="#DejaVuSans-Bold-56" transform="translate(400.292969 0)"/>
     <use xlink:href="#DejaVuSans-Bold-69" transform="translate(475.935547 0)"/>
     <use xlink:href="#DejaVuSans-Bold-73" transform="translate(510.212891 0)"/>
     <use xlink:href="#DejaVuSans-Bold-69" transform="translate(569.734375 0)"/>
     <use xlink:href="#DejaVuSans-Bold-6f" transform="translate(604.011719 0)"/>
     <use xlink:href="#DejaVuSans-Bold-6e" transform="translate(672.712891 0)"/>
     <use xlink:href="#DejaVuSans-Bold-20" transform="translate(743.904297 0)"/>
     <use xlink:href="#DejaVuSans-Bold-53" transform="translate(778.71875 0)"/>
     <use xlink:href="#DejaVuSans-Bold-6f" transform="translate(850.740234 0)"/>
     <use xlink:href="#DejaVuSans-Bold-66" transform="translate(919.441406 0)"/>
     <use xlink:href="#DejaVuSans-Bold-74" transform="translate(962.947266 0)"/>
     <use xlink:href="#DejaVuSans-Bold-77" transform="translate(1010.75 0)"/>
     <use xlink:href="#DejaVuSans-Bold-61" transform="translate(1103.132812 0)"/>
     <use xlink:href="#DejaVuSans-Bold-72" transform="translate(1170.613281 0)"/>
     <use xlink:href="#DejaVuSans-Bold-65" transform="translate(1219.929688 0)"/>
     <use xlink:href="#DejaVuSans-Bold-20" transform="translate(1287.751953 0)"/>
     <use xlink:href="#DejaVuSans-Bold-53" transform="translate(1322.566406 0)"/>
     <use xlink:href="#DejaVuSans-Bold-74" transform="translate(1394.587891 0)"/>
     <use xlink:href="#DejaVuSans-Bold-61" transform="translate(1442.390625 0)"/>
     <use xlink:href="#DejaVuSans-Bold-63" transform="translate(1509.871094 0)"/>
     <use xlink:href="#DejaVuSans-Bold-6b" transform="translate(1569.148438 0)"/>
    </g>
   </g>
   <g id="text_2">
    <!-- Frontend (Next.js 15) -->
    <g transform="translate(368.134375 116.026344) scale(0.1 -0.1)">
     <defs>
      <path id="DejaVuSans-Bold-46" d="M 588 4666 
L 3834 4666 
L 3834 3756 
L 1791 3756 
L 1791 2888 
L 3713 2888 
L 3713 1978 
L 1791 1978 
L 1791 0 
L 588 0 
L 588 4666 
z
" transform="scale(0.015625)"/>
      <path id="DejaVuSans-Bold-64" d="M 2919 2988 
L 2919 4863 
L 4044 4863 
L 4044 0 
L 2919 0 
L 2919 506 
Q 2688 197 2409 53 
Q 2131 -91 1766 -91 
Q 1119 -91 703 423 
Q 288 938 288 1747 
Q 288 2556 703 3070 
Q 1119 3584 1766 3584 
Q 2128 3584 2408 3439 
Q 2688 3294 2919 2988 
z
M 2181 722 
Q 2541 722 2730 984 
Q 2919 1247 2919 1747 
Q 2919 2247 2730 2509 
Q 2541 2772 2181 2772 
Q 1825 2772 1636 2509 
Q 1447 2247 1447 1747 
Q 1447 1247 1636 984 
Q 1825 722 2181 722 
z
" transform="scale(0.015625)"/>
      <path id="DejaVuSans-Bold-28" d="M 2413 -844 
L 1484 -844 
Q 1006 -72 778 623 
Q 550 1319 550 2003 
Q 550 2688 779 3389 
Q 1009 4091 1484 4856 
L 2413 4856 
Q 2013 4116 1813 3408 
Q 1613 2700 1613 2009 
Q 1613 1319 1811 609 
Q 2009 -100 2413 -844 
z
" transform="scale(0.015625)"/>
      <path id="DejaVuSans-Bold-2e" d="M 653 1209 
L 1778 1209 
L 1778 0 
L 653 0 
L 653 1209 
z
" transform="scale(0.015625)"/>
      <path id="DejaVuSans-Bold-6a" d="M 538 3500 
L 1656 3500 
L 1656 63 
Q 1656 -641 1318 -1011 
Q 981 -1381 341 -1381 
L -213 -1381 
L -213 -647 
L -19 -647 
Q 300 -647 419 -503 
Q 538 -359 538 63 
L 538 3500 
z
M 538 4863 
L 1656 4863 
L 1656 3950 
L 538 3950 
L 538 4863 
z
" transform="scale(0.015625)"/>
      <path id="DejaVuSans-Bold-31" d="M 750 831 
L 1813 831 
L 1813 3847 
L 722 3622 
L 722 4441 
L 1806 4666 
L 2950 4666 
L 2950 831 
L 4013 831 
L 4013 0 
L 750 0 
L 750 831 
z
" transform="scale(0.015625)"/>
      <path id="DejaVuSans-Bold-35" d="M 678 4666 
L 3669 4666 
L 3669 3781 
L 1638 3781 
L 1638 3059 
Q 1775 3097 1914 3117 
Q 2053 3138 2203 3138 
Q 3056 3138 3531 2711 
Q 4006 2284 4006 1522 
Q 4006 766 3489 337 
Q 2972 -91 2053 -91 
Q 1656 -91 1267 -14 
Q 878 63 494 219 
L 494 1166 
Q 875 947 1217 837 
Q 1559 728 1863 728 
Q 2300 728 2551 942 
Q 2803 1156 2803 1522 
Q 2803 1891 2551 2103 
Q 2300 2316 1863 2316 
Q 1603 2316 1309 2248 
Q 1016 2181 678 2041 
L 678 4666 
z
" transform="scale(0.015625)"/>
      <path id="DejaVuSans-Bold-29" d="M 513 -844 
Q 913 -100 1113 609 
Q 1313 1319 1313 2009 
Q 1313 2700 1113 3408 
Q 913 4116 513 4856 
L 1441 4856 
Q 1916 4091 2145 3389 
Q 2375 2688 2375 2003 
Q 2375 1319 2147 623 
Q 1919 -72 1441 -844 
L 513 -844 
z
" transform="scale(0.015625)"/>
     </defs>
     <use xlink:href="#DejaVuSans-Bold-46"/>
     <use xlink:href="#DejaVuSans-Bold-72" transform="translate(61.935547 0)"/>
     <use xlink:href="#DejaVuSans-Bold-6f" transform="translate(111.251953 0)"/>
     <use xlink:href="#DejaVuSans-Bold-6e" transform="translate(179.953125 0)"/>
     <use xlink:href="#DejaVuSans-Bold-74" transform="translate(251.144531 0)"/>
     <use xlink:href="#DejaVuSans-Bold-65" transform="translate(298.947266 0)"/>
     <use xlink:href="#DejaVuSans-Bold-6e" transform="translate(366.769531 0)"/>
     <use xlink:href="#DejaVuSans-Bold-64" transform="translate(437.960938 0)"/>
     <use xlink:href="#DejaVuSans-Bold-20" transform="translate(509.542969 0)"/>
     <use xlink:href="#DejaVuSans-Bold-28" transform="translate(544.357422 0)"/>
     <use xlink:href="#DejaVuSans-Bold-4e" transform="translate(590.060547 0)"/>
     <use xlink:href="#DejaVuSans-Bold-65" transform="translate(673.751953 0)"/>
     <use xlink:href="#DejaVuSans-Bold-78" transform="translate(741.574219 0)"/>
     <use xlink:href="#DejaVuSans-Bold-74" transform="translate(806.076172 0)"/>
     <use xlink:href="#DejaVuSans-Bold-2e" transform="translate(853.878906 0)"/>
     <use xlink:href="#DejaVuSans-Bold-6a" transform="translate(891.867188 0)"/>
     <use xlink:href="#DejaVuSans-Bold-73" transform="translate(926.144531 0)"/>
     <use xlink:href="#DejaVuSans-Bold-20" transform="translate(985.666016 0)"/>
     <use xlink:href="#DejaVuSans-Bold-31" transform="translate(1020.480469 0)"/>
     <use xlink:href="#DejaVuSans-Bold-35" transform="translate(1090.060547 0)"/>
     <use xlink:href="#DejaVuSans-Bold-29" transform="translate(1159.640625 0)"/>
    </g>
    <!-- React + TypeScript + Tailwind CSS -->
    <g transform="translate(331.80625 127.302281) scale(0.1 -0.1)">
     <defs>
      <path id="DejaVuSans-Bold-52" d="M 2297 2597 
Q 2675 2597 2839 2737 
Q 3003 2878 3003 3200 
Q 3003 3519 2839 3656 
Q 2675 3794 2297 3794 
L 1791 3794 
L 1791 2597 
L 2297 2597 
z
M 1791 1766 
L 1791 0 
L 588 0 
L 588 4666 
L 2425 4666 
Q 3347 4666 3776 4356 
Q 4206 4047 4206 3378 
Q 4206 2916 3982 2619 
Q 3759 2322 3309 2181 
Q 3556 2125 3751 1926 
Q 3947 1728 4147 1325 
L 4800 0 
L 3519 0 
L 2950 1159 
Q 2778 1509 2601 1637 
Q 2425 1766 2131 1766 
L 1791 1766 
z
" transform="scale(0.015625)"/>
      <path id="DejaVuSans-Bold-2b" d="M 3053 4013 
L 3053 2375 
L 4684 2375 
L 4684 1638 
L 3053 1638 
L 3053 0 
L 2309 0 
L 2309 1638 
L 678 1638 
L 678 2375 
L 2309 2375 
L 2309 4013 
L 3053 4013 
z
" transform="scale(0.015625)"/>
      <path id="DejaVuSans-Bold-54" d="M 31 4666 
L 4331 4666 
L 4331 3756 
L 2784 3756 
L 2784 0 
L 1581 0 
L 1581 3756 
L 31 3756 
L 31 4666 
z
" transform="scale(0.015625)"/>
      <path id="DejaVuSans-Bold-79" d="M 78 3500 
L 1197 3500 
L 2138 1125 
L 2938 3500 
L 4056 3500 
L 2584 -331 
Q 2363 -916 2067 -1148 
Q 1772 -1381 1288 -1381 
L 641 -1381 
L 641 -647 
L 991 -647 
Q 1275 -647 1404 -556 
Q 1534 -466 1606 -231 
L 1638 -134 
L 78 3500 
z
" transform="scale(0.015625)"/>
      <path id="DejaVuSans-Bold-70" d="M 1656 506 
L 1656 -1331 
L 538 -1331 
L 538 3500 
L 1656 3500 
L 1656 2988 
Q 1888 3294 2169 3439 
Q 2450 3584 2816 3584 
Q 3463 3584 3878 3070 
Q 4294 2556 4294 1747 
Q 4294 938 3878 423 
Q 3463 -91 2816 -91 
Q 2450 -91 2169 54 
Q 1888 200 1656 506 
z
M 2400 2772 
Q 2041 2772 1848 2508 
Q 1656 2244 1656 1747 
Q 1656 1250 1848 986 
Q 2041 722 2400 722 
Q 2759 722 2948 984 
Q 3138 1247 3138 1747 
Q 3138 2247 2948 2509 
Q 2759 2772 2400 2772 
z
" transform="scale(0.015625)"/>
      <path id="DejaVuSans-Bold-6c" d="M 538 4863 
L 1656 4863 
L 1656 0 
L 538 0 
L 538 4863 
z
" transform="scale(0.015625)"/>
      <path id="DejaVuSans-Bold-43" d="M 4288 256 
Q 3956 84 3597 -3 
Q 3238 -91 2847 -91 
Q 1681 -91 1000 561 
Q 319 1213 319 2328 
Q 319 3447 1000 4098 
Q 1681 4750 2847 4750 
Q 3238 4750 3597 4662 
Q 3956 4575 4288 4403 
L 4288 3438 
Q 3953 3666 3628 3772 
Q 3303 3878 2944 3878 
Q 2300 3878 1931 3465 
Q 1563 3053 1563 2328 
Q 1563 1606 1931 1193 
Q 2300 781 2944 781 
Q 3303 781 3628 887 
Q 3953 994 4288 1222 
L 4288 256 
z
" transform="scale(0.015625)"/>
     </defs>
     <use xlink:href="#DejaVuSans-Bold-52"/>
     <use xlink:href="#DejaVuSans-Bold-65" transform="translate(77.001953 0)"/>
     <use xlink:href="#DejaVuSans-Bold-61" transform="translate(144.824219 0)"/>
     <use xlink:href="#DejaVuSans-Bold-63" transform="translate(212.304688 0)"/>
     <use xlink:href="#DejaVuSans-Bold-74" transform="translate(271.582031 0)"/>
     <use xlink:href="#DejaVuSans-Bold-20" transform="translate(319.384766 0)"/>
     <use xlink:href="#DejaVuSans-Bold-2b" transform="translate(354.199219 0)"/>
     <use xlink:href="#DejaVuSans-Bold-20" transform="translate(437.988281 0)"/>
     <use xlink:href="#DejaVuSans-Bold-54" transform="translate(472.802734 0)"/>
     <use xlink:href="#DejaVuSans-Bold-79" transform="translate(529.140625 0)"/>
     <use xlink:href="#DejaVuSans-Bold-70" transform="translate(594.326172 0)"/>
     <use xlink:href="#DejaVuSans-Bold-65" transform="translate(665.908203 0)"/>
     <use xlink:href="#DejaVuSans-Bold-53" transform="translate(733.730469 0)"/>
     <use xlink:href="#DejaVuSans-Bold-63" transform="translate(805.751953 0)"/>
     <use xlink:href="#DejaVuSans-Bold-72" transform="translate(865.029297 0)"/>
     <use xlink:href="#DejaVuSans-Bold-69" transform="translate(914.345703 0)"/>
     <use xlink:href="#DejaVuSans-Bold-70" transform="translate(948.623047 0)"/>
     <use xlink:href="#DejaVuSans-Bold-74" transform="translate(1020.205078 0)"/>
     <use xlink:href="#DejaVuSans-Bold-20" transform="translate(1068.007812 0)"/>
     <use xlink:href="#DejaVuSans-Bold-2b" transform="translate(1102.822266 0)"/>
     <use xlink:href="#DejaVuSans-Bold-20" transform="translate(1186.611328 0)"/>
     <use xlink:href="#DejaVuSans-Bold-54" transform="translate(1221.425781 0)"/>
     <use xlink:href="#DejaVuSans-Bold-61" transform="translate(1276.763672 0)"/>
     <use xlink:href="#DejaVuSans-Bold-69" transform="translate(1344.244141 0)"/>
     <use xlink:href="#DejaVuSans-Bold-6c" transform="translate(1378.521484 0)"/>
     <use xlink:href="#DejaVuSans-Bold-77" transform="translate(1412.798828 0)"/>
     <use xlink:href="#DejaVuSans-Bold-69" transform="translate(1505.181641 0)"/>
     <use xlink:href="#DejaVuSans-Bold-6e" transform="translate(1539.458984 0)"/>
     <use xlink:href="#DejaVuSans-Bold-64" transform="translate(1610.650391 0)"/>
     <use xlink:href="#DejaVuSans-Bold-20" transform="translate(1682.232422 0)"/>
     <use xlink:href="#DejaVuSans-Bold-43" transform="translate(1717.046875 0)"/>
     <use xlink:href="#DejaVuSans-Bold-53" transform="translate(1792.310547 0)"/>
     <use xlink:href="#DejaVuSans-Bold-53" transform="translate(1859.832031 0)"/>
    </g>
   </g>
   <g id="patch_10">
    <path d="M 428.4 162.849762 
Q 428.4 188.783691 428.4 212.481553 
" style="fill: none; stroke: #546e7a; stroke-width: 2; stroke-linecap: round"/>
    <path d="M 430.4 208.481553 
L 428.4 212.481553 
L 426.4 208.481553 
" style="fill: none; stroke: #546e7a; stroke-width: 2; stroke-linecap: round"/>
   </g>
   <g id="text_3">
    <!-- WebSocket (WSS) -->
    <g style="fill: #546e7a" transform="translate(449.46 188.784) scale(0.09 -0.09)">
     <defs>
      <path id="DejaVuSans-57" d="M 213 4666 
L 850 4666 
L 1831 722 
L 2809 4666 
L 3519 4666 
L 4500 722 
L 5478 4666 
L 6119 4666 
L 4947 0 
L 4153 0 
L 3169 4050 
L 2175 0 
L 1381 0 
L 213 4666 
z
" transform="scale(0.015625)"/>
      <path id="DejaVuSans-65" d="M 3597 1894 
L 3597 1613 
L 953 1613 
Q 991 1019 1311 708 
Q 1631 397 2203 397 
Q 2534 397 2845 478 
Q 3156 559 3463 722 
L 3463 178 
Q 3153 47 2828 -22 
Q 2503 -91 2169 -91 
Q 1331 -91 842 396 
Q 353 884 353 1716 
Q 353 2575 817 3079 
Q 1281 3584 2069 3584 
Q 2775 3584 3186 3129 
Q 3597 2675 3597 1894 
z
M 3022 2063 
Q 3016 2534 2758 2815 
Q 2500 3097 2075 3097 
Q 1594 3097 1305 2825 
Q 1016 2553 972 2059 
L 3022 2063 
z
" transform="scale(0.015625)"/>
      <path id="DejaVuSans-62" d="M 3116 1747 
Q 3116 2381 2855 2742 
Q 2594 3103 2138 3103 
Q 1681 3103 1420 2742 
Q 1159 2381 1159 1747 
Q 1159 1113 1420 752 
Q 1681 391 2138 391 
Q 2594 391 2855 752 
Q 3116 1113 3116 1747 
z
M 1159 2969 
Q 1341 3281 1617 3432 
Q 1894 3584 2278 3584 
Q 2916 3584 3314 3078 
Q 3713 2572 3713 1747 
Q 3713 922 3314 415 
Q 2916 -91 2278 -91 
Q 1894 -91 1617 61 
Q 1341 213 1159 525 
L 1159 0 
L 581 0 
L 581 4863 
L 1159 4863 
L 1159 2969 
z
" transform="scale(0.015625)"/>
      <path id="DejaVuSans-53" d="M 3425 4513 
L 3425 3897 
Q 3066 4069 2747 4153 
Q 2428 4238 2131 4238 
Q 1616 4238 1336 4038 
Q 1056 3838 1056 3469 
Q 1056 3159 1242 3001 
Q 1428 2844 1947 2747 
L 2328 2669 
Q 3034 2534 3370 2195 
Q 3706 1856 3706 1288 
Q 3706 609 3251 259 
Q 2797 -91 1919 -91 
Q 1588 -91 1214 -16 
Q 841 59 441 206 
L 441 856 
Q 825 641 1194 531 
Q 1563 422 1919 422 
Q 2459 422 2753 634 
Q 3047 847 3047 1241 
Q 3047 1584 2836 1778 
Q 2625 1972 2144 2069 
L 1759 2144 
Q 1053 2284 737 2584 
Q 422 2884 422 3419 
Q 422 4038 858 4394 
Q 1294 4750 2059 4750 
Q 2388 4750 2728 4690 
Q 3069 4631 3425 4513 
z
" transform="scale(0.015625)"/>
      <path id="DejaVuSans-6f" d="M 1959 3097 
Q 1497 3097 1228 2736 
Q 959 2375 959 1747 
Q 959 1119 1226 758 
Q 1494 397 1959 397 
Q 2419 397 2687 759 
Q 2956 1122 2956 1747 
Q 2956 2369 2687 2733 
Q 2419 3097 1959 3097 
z
M 1959 3584 
Q 2709 3584 3137 3096 
Q 3566 2609 3566 1747 
Q 3566 888 3137 398 
Q 2709 -91 1959 -91 
Q 1206 -91 779 398 
Q 353 888 353 1747 
Q 353 2609 779 3096 
Q 1206 3584 1959 3584 
z
" transform="scale(0.015625)"/>
      <path id="DejaVuSans-63" d="M 3122 3366 
L 3122 2828 
Q 2878 2963 2633 3030 
Q 2388 3097 2138 3097 
Q 1578 3097 1268 2742 
Q 959 2388 959 1747 
Q 959 1106 1268 751 
Q 1578 397 2138 397 
Q 2388 397 2633 464 
Q 2878 531 3122 666 
L 3122 134 
Q 2881 22 2623 -34 
Q 2366 -91 2075 -91 
Q 1284 -91 818 406 
Q 353 903 353 1747 
Q 353 2603 823 3093 
Q 1294 3584 2113 3584 
Q 2378 3584 2631 3529 
Q 2884 3475 3122 3366 
z
" transform="scale(0.015625)"/>
      <path id="DejaVuSans-6b" d="M 581 4863 
L 1159 4863 
L 1159 1991 
L 2875 3500 
L 3609 3500 
L 1753 1863 
L 3688 0 
L 2938 0 
L 1159 1709 
L 1159 0 
L 581 0 
L 581 4863 
z
" transform="scale(0.015625)"/>
      <path id="DejaVuSans-74" d="M 1172 4494 
L 1172 3500 
L 2356 3500 
L 2356 3053 
L 1172 3053 
L 1172 1153 
Q 1172 725 1289 603 
Q 1406 481 1766 481 
L 2356 481 
L 2356 0 
L 1766 0 
Q 1100 0 847 248 
Q 594 497 594 1153 
L 594 3053 
L 172 3053 
L 172 3500 
L 594 3500 
L 594 4494 
L 1172 4494 
z
" transform="scale(0.015625)"/>
      <path id="DejaVuSans-20" transform="scale(0.015625)"/>
      <path id="DejaVuSans-28" d="M 1984 4856 
Q 1566 4138 1362 3434 
Q 1159 2731 1159 2009 
Q 1159 1288 1364 580 
Q 1569 -128 1984 -844 
L 1484 -844 
Q 1016 -109 783 600 
Q 550 1309 550 2009 
Q 550 2706 781 3412 
Q 1013 4119 1484 4856 
L 1984 4856 
z
" transform="scale(0.015625)"/>
      <path id="DejaVuSans-29" d="M 513 4856 
L 1013 4856 
Q 1481 4119 1714 3412 
Q 1947 2706 1947 2009 
Q 1947 1309 1714 600 
Q 1481 -109 1013 -844 
L 513 -844 
Q 928 -128 1133 580 
Q 1338 1288 1338 2009 
Q 1338 2731 1133 3434 
Q 928 4138 513 4856 
z
" transform="scale(0.015625)"/>
     </defs>
     <use xlink:href="#DejaVuSans-57"/>
     <use xlink:href="#DejaVuSans-65" transform="translate(93.001953 0)"/>
     <use xlink:href="#DejaVuSans-62" transform="translate(154.525391 0)"/>
     <use xlink:href="#DejaVuSans-53" transform="translate(218.001953 0)"/>
     <use xlink:href="#DejaVuSans-6f" transform="translate(281.478516 0)"/>
     <use xlink:href="#DejaVuSans-63" transform="translate(342.660156 0)"/>
     <use xlink:href="#DejaVuSans-6b" transform="translate(397.640625 0)"/>
     <use xlink:href="#DejaVuSans-65" transform="translate(451.925781 0)"/>
     <use xlink:href="#DejaVuSans-74" transform="translate(513.449219 0)"/>
     <use xlink:href="#DejaVuSans-20" transform="translate(552.658203 0)"/>
     <use xlink:href="#DejaVuSans-28" transform="translate(584.445312 0)"/>
     <use xlink:href="#DejaVuSans-57" transform="translate(623.458984 0)"/>
     <use xlink:href="#DejaVuSans-53" transform="translate(722.335938 0)"/>
     <use xlink:href="#DejaVuSans-53" transform="translate(785.8125 0)"/>
     <use xlink:href="#DejaVuSans-29" transform="translate(849.289062 0)"/>
    </g>
   </g>
   <g id="text_4">
    <!-- nginx (SSL Proxy) -->
    <g transform="translate(384.633594 252.292469) scale(0.1 -0.1)">
     <defs>
      <path id="DejaVuSans-6e" d="M 3513 2113 
L 3513 0 
L 2938 0 
L 2938 2094 
Q 2938 2591 2744 2837 
Q 2550 3084 2163 3084 
Q 1697 3084 1428 2787 
Q 1159 2491 1159 1978 
L 1159 0 
L 581 0 
L 581 3500 
L 1159 3500 
L 1159 2956 
Q 1366 3272 1645 3428 
Q 1925 3584 2291 3584 
Q 2894 3584 3203 3211 
Q 3513 2838 3513 2113 
z
" transform="scale(0.015625)"/>
      <path id="DejaVuSans-67" d="M 2906 1791 
Q 2906 2416 2648 2759 
Q 2391 3103 1925 3103 
Q 1463 3103 1205 2759 
Q 947 2416 947 1791 
Q 947 1169 1205 825 
Q 1463 481 1925 481 
Q 2391 481 2648 825 
Q 2906 1169 2906 1791 
z
M 3481 434 
Q 3481 -459 3084 -895 
Q 2688 -1331 1869 -1331 
Q 1566 -1331 1297 -1286 
Q 1028 -1241 775 -1147 
L 775 -588 
Q 1028 -725 1275 -790 
Q 1522 -856 1778 -856 
Q 2344 -856 2625 -561 
Q 2906 -266 2906 331 
L 2906 616 
Q 2728 306 2450 153 
Q 2172 0 1784 0 
Q 1141 0 747 490 
Q 353 981 353 1791 
Q 353 2603 747 3093 
Q 1141 3584 1784 3584 
Q 2172 3584 2450 3431 
Q 2728 3278 2906 2969 
L 2906 3500 
L 3481 3500 
L 3481 434 
z
" transform="scale(0.015625)"/>
      <path id="DejaVuSans-69" d="M 603 3500 
L 1178 3500 
L 1178 0 
L 603 0 
L 603 3500 
z
M 603 4863 
L 1178 4863 
L 1178 4134 
L 603 4134 
L 603 4863 
z
" transform="scale(0.015625)"/>
      <path id="DejaVuSans-78" d="M 3513 3500 
L 2247 1797 
L 3578 0 
L 2900 0 
L 1881 1375 
L 863 0 
L 184 0 
L 1544 1831 
L 300 3500 
L 978 3500 
L 1906 2253 
L 2834 3500 
L 3513 3500 
z
" transform="scale(0.015625)"/>
      <path id="DejaVuSans-4c" d="M 628 4666 
L 1259 4666 
L 1259 531 
L 3531 531 
L 3531 0 
L 628 0 
L 628 4666 
z
" transform="scale(0.015625)"/>
      <path id="DejaVuSans-50" d="M 1259 4147 
L 1259 2394 
L 2053 2394 
Q 2494 2394 2734 2622 
Q 2975 2850 2975 3272 
Q 2975 3691 2734 3919 
Q 2494 4147 2053 4147 
L 1259 4147 
z
M 628 4666 
L 2053 4666 
Q 2838 4666 3239 4311 
Q 3641 3956 3641 3272 
Q 3641 2581 3239 2228 
Q 2838 1875 2053 1875 
L 1259 1875 
L 1259 0 
L 628 0 
L 628 4666 
z
" transform="scale(0.015625)"/>
      <path id="DejaVuSans-72" d="M 2631 2963 
Q 2534 3019 2420 3045 
Q 2306 3072 2169 3072 
Q 1681 3072 1420 2755 
Q 1159 2438 1159 1844 
L 1159 0 
L 581 0 
L 581 3500 
L 1159 3500 
L 1159 2956 
Q 1341 3275 1631 3429 
Q 1922 3584 2338 3584 
Q 2397 3584 2469 3576 
Q 2541 3569 2628 3553 
L 2631 2963 
z
" transform="scale(0.015625)"/>
      <path id="DejaVuSans-79" d="M 2059 -325 
Q 1816 -950 1584 -1140 
Q 1353 -1331 966 -1331 
L 506 -1331 
L 506 -850 
L 844 -850 
Q 1081 -850 1212 -737 
Q 1344 -625 1503 -206 
L 1606 56 
L 191 3500 
L 800 3500 
L 1894 763 
L 2988 3500 
L 3597 3500 
L 2059 -325 
z
" transform="scale(0.015625)"/>
     </defs>
     <use xlink:href="#DejaVuSans-6e"/>
     <use xlink:href="#DejaVuSans-67" transform="translate(63.378906 0)"/>
     <use xlink:href="#DejaVuSans-69" transform="translate(126.855469 0)"/>
     <use xlink:href="#DejaVuSans-6e" transform="translate(154.638672 0)"/>
     <use xlink:href="#DejaVuSans-78" transform="translate(218.017578 0)"/>
     <use xlink:href="#DejaVuSans-20" transform="translate(277.197266 0)"/>
     <use xlink:href="#DejaVuSans-28" transform="translate(308.984375 0)"/>
     <use xlink:href="#DejaVuSans-53" transform="translate(347.998047 0)"/>
     <use xlink:href="#DejaVuSans-53" transform="translate(411.474609 0)"/>
     <use xlink:href="#DejaVuSans-4c" transform="translate(474.951172 0)"/>
     <use xlink:href="#DejaVuSans-20" transform="translate(530.664062 0)"/>
     <use xlink:href="#DejaVuSans-50" transform="translate(562.451172 0)"/>
     <use xlink:href="#DejaVuSans-72" transform="translate(621.003906 0)"/>
     <use xlink:href="#DejaVuSans-6f" transform="translate(659.867188 0)"/>
     <use xlink:href="#DejaVuSans-78" transform="translate(717.923828 0)"/>
     <use xlink:href="#DejaVuSans-79" transform="translate(777.103516 0)"/>
     <use xlink:href="#DejaVuSans-29" transform="translate(836.283203 0)"/>
    </g>
    <!-- Port 8080 → 6006 -->
    <g transform="translate(384.084375 263.490281) scale(0.1 -0.1)">
     <defs>
      <path id="DejaVuSans-38" d="M 2034 2216 
Q 1584 2216 1326 1975 
Q 1069 1734 1069 1313 
Q 1069 891 1326 650 
Q 1584 409 2034 409 
Q 2484 409 2743 651 
Q 3003 894 3003 1313 
Q 3003 1734 2745 1975 
Q 2488 2216 2034 2216 
z
M 1403 2484 
Q 997 2584 770 2862 
Q 544 3141 544 3541 
Q 544 4100 942 4425 
Q 1341 4750 2034 4750 
Q 2731 4750 3128 4425 
Q 3525 4100 3525 3541 
Q 3525 3141 3298 2862 
Q 3072 2584 2669 2484 
Q 3125 2378 3379 2068 
Q 3634 1759 3634 1313 
Q 3634 634 3220 271 
Q 2806 -91 2034 -91 
Q 1263 -91 848 271 
Q 434 634 434 1313 
Q 434 1759 690 2068 
Q 947 2378 1403 2484 
z
M 1172 3481 
Q 1172 3119 1398 2916 
Q 1625 2713 2034 2713 
Q 2441 2713 2670 2916 
Q 2900 3119 2900 3481 
Q 2900 3844 2670 4047 
Q 2441 4250 2034 4250 
Q 1625 4250 1398 4047 
Q 1172 3844 1172 3481 
z
" transform="scale(0.015625)"/>
      <path id="DejaVuSans-30" d="M 2034 4250 
Q 1547 4250 1301 3770 
Q 1056 3291 1056 2328 
Q 1056 1369 1301 889 
Q 1547 409 2034 409 
Q 2525 409 2770 889 
Q 3016 1369 3016 2328 
Q 3016 3291 2770 3770 
Q 2525 4250 2034 4250 
z
M 2034 4750 
Q 2819 4750 3233 4129 
Q 3647 3509 3647 2328 
Q 3647 1150 3233 529 
Q 2819 -91 2034 -91 
Q 1250 -91 836 529 
Q 422 1150 422 2328 
Q 422 3509 836 4129 
Q 1250 4750 2034 4750 
z
" transform="scale(0.015625)"/>
      <path id="DejaVuSans-2192" d="M 5050 2147 
L 5050 1866 
L 3822 638 
L 3447 1013 
L 4175 1741 
L 366 1741 
L 366 2272 
L 4175 2272 
L 3447 3000 
L 3822 3375 
L 5050 2147 
z
" transform="scale(0.015625)"/>
      <path id="DejaVuSans-36" d="M 2113 2584 
Q 1688 2584 1439 2293 
Q 1191 2003 1191 1497 
Q 1191 994 1439 701 
Q 1688 409 2113 409 
Q 2538 409 2786 701 
Q 3034 994 3034 1497 
Q 3034 2003 2786 2293 
Q 2538 2584 2113 2584 
z
M 3366 4563 
L 3366 3988 
Q 3128 4100 2886 4159 
Q 2644 4219 2406 4219 
Q 1781 4219 1451 3797 
Q 1122 3375 1075 2522 
Q 1259 2794 1537 2939 
Q 1816 3084 2150 3084 
Q 2853 3084 3261 2657 
Q 3669 2231 3669 1497 
Q 3669 778 3244 343 
Q 2819 -91 2113 -91 
Q 1303 -91 875 529 
Q 447 1150 447 2328 
Q 447 3434 972 4092 
Q 1497 4750 2381 4750 
Q 2619 4750 2861 4703 
Q 3103 4656 3366 4563 
z
" transform="scale(0.015625)"/>
     </defs>
     <use xlink:href="#DejaVuSans-50"/>
     <use xlink:href="#DejaVuSans-6f" transform="translate(56.677734 0)"/>
     <use xlink:href="#DejaVuSans-72" transform="translate(117.859375 0)"/>
     <use xlink:href="#DejaVuSans-74" transform="translate(158.972656 0)"/>
     <use xlink:href="#DejaVuSans-20" transform="translate(198.181641 0)"/>
     <use xlink:href="#DejaVuSans-38" transform="translate(229.96875 0)"/>
     <use xlink:href="#DejaVuSans-30" transform="translate(293.591797 0)"/>
     <use xlink:href="#DejaVuSans-38" transform="translate(357.214844 0)"/>
     <use xlink:href="#DejaVuSans-30" transform="translate(420.837891 0)"/>
     <use xlink:href="#DejaVuSans-20" transform="translate(484.460938 0)"/>
     <use xlink:href="#DejaVuSans-2192" transform="translate(516.248047 0)"/>
     <use xlink:href="#DejaVuSans-20" transform="translate(600.037109 0)"/>
     <use xlink:href="#DejaVuSans-36" transform="translate(631.824219 0)"/>
     <use xlink:href="#DejaVuSans-30" transform="translate(695.447266 0)"/>
     <use xlink:href="#DejaVuSans-30" transform="translate(759.070312 0)"/>
     <use xlink:href="#DejaVuSans-36" transform="translate(822.693359 0)"/>
    </g>
   </g>
   <g id="patch_11">
    <path d="M 428.4 288.561762 
Q 428.4 314.495691 428.4 338.193553 
" style="fill: none; stroke: #546e7a; stroke-width: 2; stroke-linecap: round"/>
    <path d="M 430.4 334.193553 
L 428.4 338.193553 
L 426.4 334.193553 
" style="fill: none; stroke: #546e7a; stroke-width: 2; stroke-linecap: round"/>
   </g>
   <g id="text_5">
    <!-- Python Backend (FastAPI + Uvicorn) - Port 6006 -->
    <g transform="translate(279.417031 377.352) scale(0.11 -0.11)">
     <defs>
      <path id="DejaVuSans-Bold-50" d="M 588 4666 
L 2584 4666 
Q 3475 4666 3951 4270 
Q 4428 3875 4428 3144 
Q 4428 2409 3951 2014 
Q 3475 1619 2584 1619 
L 1791 1619 
L 1791 0 
L 588 0 
L 588 4666 
z
M 1791 3794 
L 1791 2491 
L 2456 2491 
Q 2806 2491 2997 2661 
Q 3188 2831 3188 3144 
Q 3188 3456 2997 3625 
Q 2806 3794 2456 3794 
L 1791 3794 
z
" transform="scale(0.015625)"/>
      <path id="DejaVuSans-Bold-68" d="M 4056 2131 
L 4056 0 
L 2931 0 
L 2931 347 
L 2931 1625 
Q 2931 2084 2911 2256 
Q 2891 2428 2841 2509 
Q 2775 2619 2662 2680 
Q 2550 2741 2406 2741 
Q 2056 2741 1856 2470 
Q 1656 2200 1656 1722 
L 1656 0 
L 538 0 
L 538 4863 
L 1656 4863 
L 1656 2988 
Q 1909 3294 2193 3439 
Q 2478 3584 2822 3584 
Q 3428 3584 3742 3212 
Q 4056 2841 4056 2131 
z
" transform="scale(0.015625)"/>
      <path id="DejaVuSans-Bold-42" d="M 2456 2859 
Q 2741 2859 2887 2984 
Q 3034 3109 3034 3353 
Q 3034 3594 2887 3720 
Q 2741 3847 2456 3847 
L 1791 3847 
L 1791 2859 
L 2456 2859 
z
M 2497 819 
Q 2859 819 3042 972 
Q 3225 1125 3225 1434 
Q 3225 1738 3044 1889 
Q 2863 2041 2497 2041 
L 1791 2041 
L 1791 819 
L 2497 819 
z
M 3616 2497 
Q 4003 2384 4215 2081 
Q 4428 1778 4428 1338 
Q 4428 663 3972 331 
Q 3516 0 2584 0 
L 588 0 
L 588 4666 
L 2394 4666 
Q 3366 4666 3802 4372 
Q 4238 4078 4238 3431 
Q 4238 3091 4078 2852 
Q 3919 2613 3616 2497 
z
" transform="scale(0.015625)"/>
      <path id="DejaVuSans-Bold-41" d="M 3419 850 
L 1538 850 
L 1241 0 
L 31 0 
L 1759 4666 
L 3194 4666 
L 4922 0 
L 3713 0 
L 3419 850 
z
M 1838 1716 
L 3116 1716 
L 2478 3572 
L 1838 1716 
z
" transform="scale(0.015625)"/>
      <path id="DejaVuSans-Bold-49" d="M 588 4666 
L 1791 4666 
L 1791 0 
L 588 0 
L 588 4666 
z
" transform="scale(0.015625)"/>
      <path id="DejaVuSans-Bold-55" d="M 588 4666 
L 1791 4666 
L 1791 1869 
Q 1791 1291 1980 1042 
Q 2169 794 2597 794 
Q 3028 794 3217 1042 
Q 3406 1291 3406 1869 
L 3406 4666 
L 4609 4666 
L 4609 1869 
Q 4609 878 4112 393 
Q 3616 -91 2597 -91 
Q 1581 -91 1084 393 
Q 588 878 588 1869 
L 588 4666 
z
" transform="scale(0.015625)"/>
      <path id="DejaVuSans-Bold-76" d="M 97 3500 
L 1216 3500 
L 2088 1081 
L 2956 3500 
L 4078 3500 
L 2700 0 
L 1472 0 
L 97 3500 
z
" transform="scale(0.015625)"/>
      <path id="DejaVuSans-Bold-2d" d="M 347 2297 
L 2309 2297 
L 2309 1388 
L 347 1388 
L 347 2297 
z
" transform="scale(0.015625)"/>
      <path id="DejaVuSans-Bold-36" d="M 2316 2303 
Q 2000 2303 1842 2098 
Q 1684 1894 1684 1484 
Q 1684 1075 1842 870 
Q 2000 666 2316 666 
Q 2634 666 2792 870 
Q 2950 1075 2950 1484 
Q 2950 1894 2792 2098 
Q 2634 2303 2316 2303 
z
M 3803 4544 
L 3803 3681 
Q 3506 3822 3243 3889 
Q 2981 3956 2731 3956 
Q 2194 3956 1894 3657 
Q 1594 3359 1544 2772 
Q 1750 2925 1990 3001 
Q 2231 3078 2516 3078 
Q 3231 3078 3670 2659 
Q 4109 2241 4109 1563 
Q 4109 813 3618 361 
Q 3128 -91 2303 -91 
Q 1394 -91 895 523 
Q 397 1138 397 2266 
Q 397 3422 980 4083 
Q 1563 4744 2578 4744 
Q 2900 4744 3203 4694 
Q 3506 4644 3803 4544 
z
" transform="scale(0.015625)"/>
      <path id="DejaVuSans-Bold-30" d="M 2944 2338 
Q 2944 3213 2780 3570 
Q 2616 3928 2228 3928 
Q 1841 3928 1675 3570 
Q 1509 3213 1509 2338 
Q 1509 1453 1675 1090 
Q 1841 728 2228 728 
Q 2613 728 2778 1090 
Q 2944 1453 2944 2338 
z
M 4147 2328 
Q 4147 1169 3647 539 
Q 3147 -91 2228 -91 
Q 1306 -91 806 539 
Q 306 1169 306 2328 
Q 306 3491 806 4120 
Q 1306 4750 2228 4750 
Q 3147 4750 3647 4120 
Q 4147 3491 4147 2328 
z
" transform="scale(0.015625)"/>
     </defs>
     <use xlink:href="#DejaVuSans-Bold-50"/>
     <use xlink:href="#DejaVuSans-Bold-79" transform="translate(75.166016 0)"/>
     <use xlink:href="#DejaVuSans-Bold-74" transform="translate(140.351562 0)"/>
     <use xlink:href="#DejaVuSans-Bold-68" transform="translate(188.154297 0)"/>
     <use xlink:href="#DejaVuSans-Bold-6f" transform="translate(259.345703 0)"/>
     <use xlink:href="#DejaVuSans-Bold-6e" transform="translate(328.046875 0)"/>
     <use xlink:href="#DejaVuSans-Bold-20" transform="translate(399.238281 0)"/>
     <use xlink:href="#DejaVuSans-Bold-42" transform="translate(434.052734 0)"/>
     <use xlink:href="#DejaVuSans-Bold-61" transform="translate(510.273438 0)"/>
     <use xlink:href="#DejaVuSans-Bold-63" transform="translate(577.753906 0)"/>
     <use xlink:href="#DejaVuSans-Bold-6b" transform="translate(637.03125 0)"/>
     <use xlink:href="#DejaVuSans-Bold-65" transform="translate(700.910156 0)"/>
     <use xlink:href="#DejaVuSans-Bold-6e" transform="translate(768.732422 0)"/>
     <use xlink:href="#DejaVuSans-Bold-64" transform="translate(839.923828 0)"/>
     <use xlink:href="#DejaVuSans-Bold-20" transform="translate(911.505859 0)"/>
     <use xlink:href="#DejaVuSans-Bold-28" transform="translate(946.320312 0)"/>
     <use xlink:href="#DejaVuSans-Bold-46" transform="translate(992.023438 0)"/>
     <use xlink:href="#DejaVuSans-Bold-61" transform="translate(1054.458984 0)"/>
     <use xlink:href="#DejaVuSans-Bold-73" transform="translate(1121.939453 0)"/>
     <use xlink:href="#DejaVuSans-Bold-74" transform="translate(1181.460938 0)"/>
     <use xlink:href="#DejaVuSans-Bold-41" transform="translate(1229.263672 0)"/>
     <use xlink:href="#DejaVuSans-Bold-50" transform="translate(1306.65625 0)"/>
     <use xlink:href="#DejaVuSans-Bold-49" transform="translate(1379.947266 0)"/>
     <use xlink:href="#DejaVuSans-Bold-20" transform="translate(1417.154297 0)"/>
     <use xlink:href="#DejaVuSans-Bold-2b" transform="translate(1451.96875 0)"/>
     <use xlink:href="#DejaVuSans-Bold-20" transform="translate(1535.757812 0)"/>
     <use xlink:href="#DejaVuSans-Bold-55" transform="translate(1570.572266 0)"/>
     <use xlink:href="#DejaVuSans-Bold-76" transform="translate(1651.773438 0)"/>
     <use xlink:href="#DejaVuSans-Bold-69" transform="translate(1716.958984 0)"/>
     <use xlink:href="#DejaVuSans-Bold-63" transform="translate(1751.236328 0)"/>
     <use xlink:href="#DejaVuSans-Bold-6f" transform="translate(1810.513672 0)"/>
     <use xlink:href="#DejaVuSans-Bold-72" transform="translate(1879.214844 0)"/>
     <use xlink:href="#DejaVuSans-Bold-6e" transform="translate(1928.53125 0)"/>
     <use xlink:href="#DejaVuSans-Bold-29" transform="translate(1999.722656 0)"/>
     <use xlink:href="#DejaVuSans-Bold-20" transform="translate(2045.425781 0)"/>
     <use xlink:href="#DejaVuSans-Bold-2d" transform="translate(2080.240234 0)"/>
     <use xlink:href="#DejaVuSans-Bold-20" transform="translate(2121.744141 0)"/>
     <use xlink:href="#DejaVuSans-Bold-50" transform="translate(2156.558594 0)"/>
     <use xlink:href="#DejaVuSans-Bold-6f" transform="translate(2229.849609 0)"/>
     <use xlink:href="#DejaVuSans-Bold-72" transform="translate(2298.550781 0)"/>
     <use xlink:href="#DejaVuSans-Bold-74" transform="translate(2347.867188 0)"/>
     <use xlink:href="#DejaVuSans-Bold-20" transform="translate(2395.669922 0)"/>
     <use xlink:href="#DejaVuSans-Bold-36" transform="translate(2430.484375 0)"/>
     <use xlink:href="#DejaVuSans-Bold-30" transform="translate(2500.064453 0)"/>
     <use xlink:href="#DejaVuSans-Bold-30" transform="translate(2569.644531 0)"/>
     <use xlink:href="#DejaVuSans-Bold-36" transform="translate(2639.224609 0)"/>
    </g>
   </g>
   <g id="text_6">
    <!-- YOLOv26-Pose -->
    <g transform="translate(157.360078 484.595438) scale(0.09 -0.09)">
     <defs>
      <path id="DejaVuSans-59" d="M -13 4666 
L 666 4666 
L 1959 2747 
L 3244 4666 
L 3922 4666 
L 2272 2222 
L 2272 0 
L 1638 0 
L 1638 2222 
L -13 4666 
z
" transform="scale(0.015625)"/>
      <path id="DejaVuSans-4f" d="M 2522 4238 
Q 1834 4238 1429 3725 
Q 1025 3213 1025 2328 
Q 1025 1447 1429 934 
Q 1834 422 2522 422 
Q 3209 422 3611 934 
Q 4013 1447 4013 2328 
Q 4013 3213 3611 3725 
Q 3209 4238 2522 4238 
z
M 2522 4750 
Q 3503 4750 4090 4092 
Q 4678 3434 4678 2328 
Q 4678 1225 4090 567 
Q 3503 -91 2522 -91 
Q 1538 -91 948 565 
Q 359 1222 359 2328 
Q 359 3434 948 4092 
Q 1538 4750 2522 4750 
z
" transform="scale(0.015625)"/>
      <path id="DejaVuSans-76" d="M 191 3500 
L 800 3500 
L 1894 563 
L 2988 3500 
L 3597 3500 
L 2284 0 
L 1503 0 
L 191 3500 
z
" transform="scale(0.015625)"/>
      <path id="DejaVuSans-32" d="M 1228 531 
L 3431 531 
L 3431 0 
L 469 0 
L 469 531 
Q 828 903 1448 1529 
Q 2069 2156 2228 2338 
Q 2531 2678 2651 2914 
Q 2772 3150 2772 3378 
Q 2772 3750 2511 3984 
Q 2250 4219 1831 4219 
Q 1534 4219 1204 4116 
Q 875 4013 500 3803 
L 500 4441 
Q 881 4594 1212 4672 
Q 1544 4750 1819 4750 
Q 2544 4750 2975 4387 
Q 3406 4025 3406 3419 
Q 3406 3131 3298 2873 
Q 3191 2616 2906 2266 
Q 2828 2175 2409 1742 
Q 1991 1309 1228 531 
z
" transform="scale(0.015625)"/>
      <path id="DejaVuSans-2d" d="M 313 2009 
L 1997 2009 
L 1997 1497 
L 313 1497 
L 313 2009 
z
" transform="scale(0.015625)"/>
      <path id="DejaVuSans-73" d="M 2834 3397 
L 2834 2853 
Q 2591 2978 2328 3040 
Q 2066 3103 1784 3103 
Q 1356 3103 1142 2972 
Q 928 2841 928 2578 
Q 928 2378 1081 2264 
Q 1234 2150 1697 2047 
L 1894 2003 
Q 2506 1872 2764 1633 
Q 3022 1394 3022 966 
Q 3022 478 2636 193 
Q 2250 -91 1575 -91 
Q 1294 -91 989 -36 
Q 684 19 347 128 
L 347 722 
Q 666 556 975 473 
Q 1284 391 1588 391 
Q 1994 391 2212 530 
Q 2431 669 2431 922 
Q 2431 1156 2273 1281 
Q 2116 1406 1581 1522 
L 1381 1569 
Q 847 1681 609 1914 
Q 372 2147 372 2553 
Q 372 3047 722 3315 
Q 1072 3584 1716 3584 
Q 2034 3584 2315 3537 
Q 2597 3491 2834 3397 
z
" transform="scale(0.015625)"/>
     </defs>
     <use xlink:href="#DejaVuSans-59"/>
     <use xlink:href="#DejaVuSans-4f" transform="translate(55.583984 0)"/>
     <use xlink:href="#DejaVuSans-4c" transform="translate(134.294922 0)"/>
     <use xlink:href="#DejaVuSans-4f" transform="translate(186.382812 0)"/>
     <use xlink:href="#DejaVuSans-76" transform="translate(265.09375 0)"/>
     <use xlink:href="#DejaVuSans-32" transform="translate(324.273438 0)"/>
     <use xlink:href="#DejaVuSans-36" transform="translate(387.896484 0)"/>
     <use xlink:href="#DejaVuSans-2d" transform="translate(451.519531 0)"/>
     <use xlink:href="#DejaVuSans-50" transform="translate(487.603516 0)"/>
     <use xlink:href="#DejaVuSans-6f" transform="translate(544.28125 0)"/>
     <use xlink:href="#DejaVuSans-73" transform="translate(605.462891 0)"/>
     <use xlink:href="#DejaVuSans-65" transform="translate(657.5625 0)"/>
    </g>
   </g>
   <g id="text_7">
    <!-- ST-GCN++ -->
    <g transform="translate(333.681328 484.595438) scale(0.09 -0.09)">
     <defs>
      <path id="DejaVuSans-54" d="M -19 4666 
L 3928 4666 
L 3928 4134 
L 2272 4134 
L 2272 0 
L 1638 0 
L 1638 4134 
L -19 4134 
L -19 4666 
z
" transform="scale(0.015625)"/>
      <path id="DejaVuSans-47" d="M 3809 666 
L 3809 1919 
L 2778 1919 
L 2778 2438 
L 4434 2438 
L 4434 434 
Q 4069 175 3628 42 
Q 3188 -91 2688 -91 
Q 1594 -91 976 548 
Q 359 1188 359 2328 
Q 359 3472 976 4111 
Q 1594 4750 2688 4750 
Q 3144 4750 3555 4637 
Q 3966 4525 4313 4306 
L 4313 3634 
Q 3963 3931 3569 4081 
Q 3175 4231 2741 4231 
Q 1884 4231 1454 3753 
Q 1025 3275 1025 2328 
Q 1025 1384 1454 906 
Q 1884 428 2741 428 
Q 3075 428 3337 486 
Q 3600 544 3809 666 
z
" transform="scale(0.015625)"/>
      <path id="DejaVuSans-43" d="M 4122 4306 
L 4122 3641 
Q 3803 3938 3442 4084 
Q 3081 4231 2675 4231 
Q 1875 4231 1450 3742 
Q 1025 3253 1025 2328 
Q 1025 1406 1450 917 
Q 1875 428 2675 428 
Q 3081 428 3442 575 
Q 3803 722 4122 1019 
L 4122 359 
Q 3791 134 3420 21 
Q 3050 -91 2638 -91 
Q 1578 -91 968 557 
Q 359 1206 359 2328 
Q 359 3453 968 4101 
Q 1578 4750 2638 4750 
Q 3056 4750 3426 4639 
Q 3797 4528 4122 4306 
z
" transform="scale(0.015625)"/>
      <path id="DejaVuSans-4e" d="M 628 4666 
L 1478 4666 
L 3547 763 
L 3547 4666 
L 4159 4666 
L 4159 0 
L 3309 0 
L 1241 3903 
L 1241 0 
L 628 0 
L 628 4666 
z
" transform="scale(0.015625)"/>
      <path id="DejaVuSans-2b" d="M 2944 4013 
L 2944 2272 
L 4684 2272 
L 4684 1741 
L 2944 1741 
L 2944 0 
L 2419 0 
L 2419 1741 
L 678 1741 
L 678 2272 
L 2419 2272 
L 2419 4013 
L 2944 4013 
z
" transform="scale(0.015625)"/>
     </defs>
     <use xlink:href="#DejaVuSans-53"/>
     <use xlink:href="#DejaVuSans-54" transform="translate(63.476562 0)"/>
     <use xlink:href="#DejaVuSans-2d" transform="translate(115.435547 0)"/>
     <use xlink:href="#DejaVuSans-47" transform="translate(155.144531 0)"/>
     <use xlink:href="#DejaVuSans-43" transform="translate(232.634766 0)"/>
     <use xlink:href="#DejaVuSans-4e" transform="translate(302.458984 0)"/>
     <use xlink:href="#DejaVuSans-2b" transform="translate(377.263672 0)"/>
     <use xlink:href="#DejaVuSans-2b" transform="translate(461.052734 0)"/>
    </g>
   </g>
   <g id="text_8">
    <!-- MS-G3D -->
    <g transform="translate(508.338984 484.595438) scale(0.09 -0.09)">
     <defs>
      <path id="DejaVuSans-4d" d="M 628 4666 
L 1569 4666 
L 2759 1491 
L 3956 4666 
L 4897 4666 
L 4897 0 
L 4281 0 
L 4281 4097 
L 3078 897 
L 2444 897 
L 1241 4097 
L 1241 0 
L 628 0 
L 628 4666 
z
" transform="scale(0.015625)"/>
      <path id="DejaVuSans-33" d="M 2597 2516 
Q 3050 2419 3304 2112 
Q 3559 1806 3559 1356 
Q 3559 666 3084 287 
Q 2609 -91 1734 -91 
Q 1441 -91 1130 -33 
Q 819 25 488 141 
L 488 750 
Q 750 597 1062 519 
Q 1375 441 1716 441 
Q 2309 441 2620 675 
Q 2931 909 2931 1356 
Q 2931 1769 2642 2001 
Q 2353 2234 1838 2234 
L 1294 2234 
L 1294 2753 
L 1863 2753 
Q 2328 2753 2575 2939 
Q 2822 3125 2822 3475 
Q 2822 3834 2567 4026 
Q 2313 4219 1838 4219 
Q 1578 4219 1281 4162 
Q 984 4106 628 3988 
L 628 4550 
Q 988 4650 1302 4700 
Q 1616 4750 1894 4750 
Q 2613 4750 3031 4423 
Q 3450 4097 3450 3541 
Q 3450 3153 3228 2886 
Q 3006 2619 2597 2516 
z
" transform="scale(0.015625)"/>
      <path id="DejaVuSans-44" d="M 1259 4147 
L 1259 519 
L 2022 519 
Q 2988 519 3436 956 
Q 3884 1394 3884 2338 
Q 3884 3275 3436 3711 
Q 2988 4147 2022 4147 
L 1259 4147 
z
M 628 4666 
L 1925 4666 
Q 3281 4666 3915 4102 
Q 4550 3538 4550 2338 
Q 4550 1131 3912 565 
Q 3275 0 1925 0 
L 628 0 
L 628 4666 
z
" transform="scale(0.015625)"/>
     </defs>
     <use xlink:href="#DejaVuSans-4d"/>
     <use xlink:href="#DejaVuSans-53" transform="translate(86.279297 0)"/>
     <use xlink:href="#DejaVuSans-2d" transform="translate(149.755859 0)"/>
     <use xlink:href="#DejaVuSans-47" transform="translate(189.464844 0)"/>
     <use xlink:href="#DejaVuSans-33" transform="translate(266.955078 0)"/>
     <use xlink:href="#DejaVuSans-44" transform="translate(330.578125 0)"/>
    </g>
   </g>
   <g id="text_9">
    <!-- BoT-SORT -->
    <g transform="translate(673.409531 484.595438) scale(0.09 -0.09)">
     <defs>
      <path id="DejaVuSans-42" d="M 1259 2228 
L 1259 519 
L 2272 519 
Q 2781 519 3026 730 
Q 3272 941 3272 1375 
Q 3272 1813 3026 2020 
Q 2781 2228 2272 2228 
L 1259 2228 
z
M 1259 4147 
L 1259 2741 
L 2194 2741 
Q 2656 2741 2882 2914 
Q 3109 3088 3109 3444 
Q 3109 3797 2882 3972 
Q 2656 4147 2194 4147 
L 1259 4147 
z
M 628 4666 
L 2241 4666 
Q 2963 4666 3353 4366 
Q 3744 4066 3744 3513 
Q 3744 3084 3544 2831 
Q 3344 2578 2956 2516 
Q 3422 2416 3680 2098 
Q 3938 1781 3938 1306 
Q 3938 681 3513 340 
Q 3088 0 2303 0 
L 628 0 
L 628 4666 
z
" transform="scale(0.015625)"/>
      <path id="DejaVuSans-52" d="M 2841 2188 
Q 3044 2119 3236 1894 
Q 3428 1669 3622 1275 
L 4263 0 
L 3584 0 
L 2988 1197 
Q 2756 1666 2539 1819 
Q 2322 1972 1947 1972 
L 1259 1972 
L 1259 0 
L 628 0 
L 628 4666 
L 2053 4666 
Q 2853 4666 3247 4331 
Q 3641 3997 3641 3322 
Q 3641 2881 3436 2590 
Q 3231 2300 2841 2188 
z
M 1259 4147 
L 1259 2491 
L 2053 2491 
Q 2509 2491 2742 2702 
Q 2975 2913 2975 3322 
Q 2975 3731 2742 3939 
Q 2509 4147 2053 4147 
L 1259 4147 
z
" transform="scale(0.015625)"/>
     </defs>
     <use xlink:href="#DejaVuSans-42"/>
     <use xlink:href="#DejaVuSans-6f" transform="translate(68.603516 0)"/>
     <use xlink:href="#DejaVuSans-54" transform="translate(129.785156 0)"/>
     <use xlink:href="#DejaVuSans-2d" transform="translate(181.744141 0)"/>
     <use xlink:href="#DejaVuSans-53" transform="translate(217.828125 0)"/>
     <use xlink:href="#DejaVuSans-4f" transform="translate(281.304688 0)"/>
     <use xlink:href="#DejaVuSans-52" transform="translate(360.015625 0)"/>
     <use xlink:href="#DejaVuSans-54" transform="translate(422.248047 0)"/>
    </g>
   </g>
   <g id="patch_12">
    <path d="M 428.4 533.001762 
Q 428.4 558.935691 428.4 582.633553 
" style="fill: none; stroke: #546e7a; stroke-width: 2; stroke-linecap: round"/>
    <path d="M 430.4 578.633553 
L 428.4 582.633553 
L 426.4 578.633553 
" style="fill: none; stroke: #546e7a; stroke-width: 2; stroke-linecap: round"/>
   </g>
   <g id="text_10">
    <!-- Supabase (PostgreSQL) -->
    <g transform="translate(369.860937 639.739156) scale(0.1 -0.1)">
     <defs>
      <path id="DejaVuSans-75" d="M 544 1381 
L 544 3500 
L 1119 3500 
L 1119 1403 
Q 1119 906 1312 657 
Q 1506 409 1894 409 
Q 2359 409 2629 706 
Q 2900 1003 2900 1516 
L 2900 3500 
L 3475 3500 
L 3475 0 
L 2900 0 
L 2900 538 
Q 2691 219 2414 64 
Q 2138 -91 1772 -91 
Q 1169 -91 856 284 
Q 544 659 544 1381 
z
M 1991 3584 
L 1991 3584 
z
" transform="scale(0.015625)"/>
      <path id="DejaVuSans-70" d="M 1159 525 
L 1159 -1331 
L 581 -1331 
L 581 3500 
L 1159 3500 
L 1159 2969 
Q 1341 3281 1617 3432 
Q 1894 3584 2278 3584 
Q 2916 3584 3314 3078 
Q 3713 2572 3713 1747 
Q 3713 922 3314 415 
Q 2916 -91 2278 -91 
Q 1894 -91 1617 61 
Q 1341 213 1159 525 
z
M 3116 1747 
Q 3116 2381 2855 2742 
Q 2594 3103 2138 3103 
Q 1681 3103 1420 2742 
Q 1159 2381 1159 1747 
Q 1159 1113 1420 752 
Q 1681 391 2138 391 
Q 2594 391 2855 752 
Q 3116 1113 3116 1747 
z
" transform="scale(0.015625)"/>
      <path id="DejaVuSans-61" d="M 2194 1759 
Q 1497 1759 1228 1600 
Q 959 1441 959 1056 
Q 959 750 1161 570 
Q 1363 391 1709 391 
Q 2188 391 2477 730 
Q 2766 1069 2766 1631 
L 2766 1759 
L 2194 1759 
z
M 3341 1997 
L 3341 0 
L 2766 0 
L 2766 531 
Q 2569 213 2275 61 
Q 1981 -91 1556 -91 
Q 1019 -91 701 211 
Q 384 513 384 1019 
Q 384 1609 779 1909 
Q 1175 2209 1959 2209 
L 2766 2209 
L 2766 2266 
Q 2766 2663 2505 2880 
Q 2244 3097 1772 3097 
Q 1472 3097 1187 3025 
Q 903 2953 641 2809 
L 641 3341 
Q 956 3463 1253 3523 
Q 1550 3584 1831 3584 
Q 2591 3584 2966 3190 
Q 3341 2797 3341 1997 
z
" transform="scale(0.015625)"/>
      <path id="DejaVuSans-51" d="M 2522 4238 
Q 1834 4238 1429 3725 
Q 1025 3213 1025 2328 
Q 1025 1447 1429 934 
Q 1834 422 2522 422 
Q 3209 422 3611 934 
Q 4013 1447 4013 2328 
Q 4013 3213 3611 3725 
Q 3209 4238 2522 4238 
z
M 3406 84 
L 4238 -825 
L 3475 -825 
L 2784 -78 
Q 2681 -84 2626 -87 
Q 2572 -91 2522 -91 
Q 1538 -91 948 567 
Q 359 1225 359 2328 
Q 359 3434 948 4092 
Q 1538 4750 2522 4750 
Q 3503 4750 4090 4092 
Q 4678 3434 4678 2328 
Q 4678 1516 4351 937 
Q 4025 359 3406 84 
z
" transform="scale(0.015625)"/>
     </defs>
     <use xlink:href="#DejaVuSans-53"/>
     <use xlink:href="#DejaVuSans-75" transform="translate(63.476562 0)"/>
     <use xlink:href="#DejaVuSans-70" transform="translate(126.855469 0)"/>
     <use xlink:href="#DejaVuSans-61" transform="translate(190.332031 0)"/>
     <use xlink:href="#DejaVuSans-62" transform="translate(251.611328 0)"/>
     <use xlink:href="#DejaVuSans-61" transform="translate(315.087891 0)"/>
     <use xlink:href="#DejaVuSans-73" transform="translate(376.367188 0)"/>
     <use xlink:href="#DejaVuSans-65" transform="translate(428.466797 0)"/>
     <use xlink:href="#DejaVuSans-20" transform="translate(489.990234 0)"/>
     <use xlink:href="#DejaVuSans-28" transform="translate(521.777344 0)"/>
     <use xlink:href="#DejaVuSans-50" transform="translate(560.791016 0)"/>
     <use xlink:href="#DejaVuSans-6f" transform="translate(617.46875 0)"/>
     <use xlink:href="#DejaVuSans-73" transform="translate(678.650391 0)"/>
     <use xlink:href="#DejaVuSans-74" transform="translate(730.75 0)"/>
     <use xlink:href="#DejaVuSans-67" transform="translate(769.958984 0)"/>
     <use xlink:href="#DejaVuSans-72" transform="translate(833.435547 0)"/>
     <use xlink:href="#DejaVuSans-65" transform="translate(872.298828 0)"/>
     <use xlink:href="#DejaVuSans-53" transform="translate(933.822266 0)"/>
     <use xlink:href="#DejaVuSans-51" transform="translate(997.298828 0)"/>
     <use xlink:href="#DejaVuSans-4c" transform="translate(1076.009766 0)"/>
     <use xlink:href="#DejaVuSans-29" transform="translate(1131.722656 0)"/>
    </g>
    <!-- User Auth | Configurations | Incidents | Real-time -->
    <g transform="translate(305.950781 650.989469) scale(0.1 -0.1)">
     <defs>
      <path id="DejaVuSans-55" d="M 556 4666 
L 1191 4666 
L 1191 1831 
Q 1191 1081 1462 751 
Q 1734 422 2344 422 
Q 2950 422 3222 751 
Q 3494 1081 3494 1831 
L 3494 4666 
L 4128 4666 
L 4128 1753 
Q 4128 841 3676 375 
Q 3225 -91 2344 -91 
Q 1459 -91 1007 375 
Q 556 841 556 1753 
L 556 4666 
z
" transform="scale(0.015625)"/>
      <path id="DejaVuSans-41" d="M 2188 4044 
L 1331 1722 
L 3047 1722 
L 2188 4044 
z
M 1831 4666 
L 2547 4666 
L 4325 0 
L 3669 0 
L 3244 1197 
L 1141 1197 
L 716 0 
L 50 0 
L 1831 4666 
z
" transform="scale(0.015625)"/>
      <path id="DejaVuSans-68" d="M 3513 2113 
L 3513 0 
L 2938 0 
L 2938 2094 
Q 2938 2591 2744 2837 
Q 2550 3084 2163 3084 
Q 1697 3084 1428 2787 
Q 1159 2491 1159 1978 
L 1159 0 
L 581 0 
L 581 4863 
L 1159 4863 
L 1159 2956 
Q 1366 3272 1645 3428 
Q 1925 3584 2291 3584 
Q 2894 3584 3203 3211 
Q 3513 2838 3513 2113 
z
" transform="scale(0.015625)"/>
      <path id="DejaVuSans-7c" d="M 1344 4891 
L 1344 -1509 
L 813 -1509 
L 813 4891 
L 1344 4891 
z
" transform="scale(0.015625)"/>
      <path id="DejaVuSans-66" d="M 2375 4863 
L 2375 4384 
L 1825 4384 
Q 1516 4384 1395 4259 
Q 1275 4134 1275 3809 
L 1275 3500 
L 2222 3500 
L 2222 3053 
L 1275 3053 
L 1275 0 
L 697 0 
L 697 3053 
L 147 3053 
L 147 3500 
L 697 3500 
L 697 3744 
Q 697 4328 969 4595 
Q 1241 4863 1831 4863 
L 2375 4863 
z
" transform="scale(0.015625)"/>
      <path id="DejaVuSans-49" d="M 628 4666 
L 1259 4666 
L 1259 0 
L 628 0 
L 628 4666 
z
" transform="scale(0.015625)"/>
      <path id="DejaVuSans-64" d="M 2906 2969 
L 2906 4863 
L 3481 4863 
L 3481 0 
L 2906 0 
L 2906 525 
Q 2725 213 2448 61 
Q 2172 -91 1784 -91 
Q 1150 -91 751 415 
Q 353 922 353 1747 
Q 353 2572 751 3078 
Q 1150 3584 1784 3584 
Q 2172 3584 2448 3432 
Q 2725 3281 2906 2969 
z
M 947 1747 
Q 947 1113 1208 752 
Q 1469 391 1925 391 
Q 2381 391 2643 752 
Q 2906 1113 2906 1747 
Q 2906 2381 2643 2742 
Q 2381 3103 1925 3103 
Q 1469 3103 1208 2742 
Q 947 2381 947 1747 
z
" transform="scale(0.015625)"/>
      <path id="DejaVuSans-6c" d="M 603 4863 
L 1178 4863 
L 1178 0 
L 603 0 
L 603 4863 
z
" transform="scale(0.015625)"/>
      <path id="DejaVuSans-6d" d="M 3328 2828 
Q 3544 3216 3844 3400 
Q 4144 3584 4550 3584 
Q 5097 3584 5394 3201 
Q 5691 2819 5691 2113 
L 5691 0 
L 5113 0 
L 5113 2094 
Q 5113 2597 4934 2840 
Q 4756 3084 4391 3084 
Q 3944 3084 3684 2787 
Q 3425 2491 3425 1978 
L 3425 0 
L 2847 0 
L 2847 2094 
Q 2847 2600 2669 2842 
Q 2491 3084 2119 3084 
Q 1678 3084 1418 2786 
Q 1159 2488 1159 1978 
L 1159 0 
L 581 0 
L 581 3500 
L 1159 3500 
L 1159 2956 
Q 1356 3278 1631 3431 
Q 1906 3584 2284 3584 
Q 2666 3584 2933 3390 
Q 3200 3197 3328 2828 
z
" transform="scale(0.015625)"/>
     </defs>
     <use xlink:href="#DejaVuSans-55"/>
     <use xlink:href="#DejaVuSans-73" transform="translate(73.193359 0)"/>
     <use xlink:href="#DejaVuSans-65" transform="translate(125.292969 0)"/>
     <use xlink:href="#DejaVuSans-72" transform="translate(186.816406 0)"/>
     <use xlink:href="#DejaVuSans-20" transform="translate(227.929688 0)"/>
     <use xlink:href="#DejaVuSans-41" transform="translate(259.716797 0)"/>
     <use xlink:href="#DejaVuSans-75" transform="translate(328.125 0)"/>
     <use xlink:href="#DejaVuSans-74" transform="translate(391.503906 0)"/>
     <use xlink:href="#DejaVuSans-68" transform="translate(430.712891 0)"/>
     <use xlink:href="#DejaVuSans-20" transform="translate(494.091797 0)"/>
     <use xlink:href="#DejaVuSans-7c" transform="translate(525.878906 0)"/>
     <use xlink:href="#DejaVuSans-20" transform="translate(559.570312 0)"/>
     <use xlink:href="#DejaVuSans-43" transform="translate(591.357422 0)"/>
     <use xlink:href="#DejaVuSans-6f" transform="translate(661.181641 0)"/>
     <use xlink:href="#DejaVuSans-6e" transform="translate(722.363281 0)"/>
     <use xlink:href="#DejaVuSans-66" transform="translate(785.742188 0)"/>
     <use xlink:href="#DejaVuSans-69" transform="translate(820.947266 0)"/>
     <use xlink:href="#DejaVuSans-67" transform="translate(848.730469 0)"/>
     <use xlink:href="#DejaVuSans-75" transform="translate(912.207031 0)"/>
     <use xlink:href="#DejaVuSans-72" transform="translate(975.585938 0)"/>
     <use xlink:href="#DejaVuSans-61" transform="translate(1016.699219 0)"/>
     <use xlink:href="#DejaVuSans-74" transform="translate(1077.978516 0)"/>
     <use xlink:href="#DejaVuSans-69" transform="translate(1117.1875 0)"/>
     <use xlink:href="#DejaVuSans-6f" transform="translate(1144.970703 0)"/>
     <use xlink:href="#DejaVuSans-6e" transform="translate(1206.152344 0)"/>
     <use xlink:href="#DejaVuSans-73" transform="translate(1269.53125 0)"/>
     <use xlink:href="#DejaVuSans-20" transform="translate(1321.630859 0)"/>
     <use xlink:href="#DejaVuSans-7c" transform="translate(1353.417969 0)"/>
     <use xlink:href="#DejaVuSans-20" transform="translate(1387.109375 0)"/>
     <use xlink:href="#DejaVuSans-49" transform="translate(1418.896484 0)"/>
     <use xlink:href="#DejaVuSans-6e" transform="translate(1448.388672 0)"/>
     <use xlink:href="#DejaVuSans-63" transform="translate(1511.767578 0)"/>
     <use xlink:href="#DejaVuSans-69" transform="translate(1566.748047 0)"/>
     <use xlink:href="#DejaVuSans-64" transform="translate(1594.53125 0)"/>
     <use xlink:href="#DejaVuSans-65" transform="translate(1658.007812 0)"/>
     <use xlink:href="#DejaVuSans-6e" transform="translate(1719.53125 0)"/>
     <use xlink:href="#DejaVuSans-74" transform="translate(1782.910156 0)"/>
     <use xlink:href="#DejaVuSans-73" transform="translate(1822.119141 0)"/>
     <use xlink:href="#DejaVuSans-20" transform="translate(1874.21875 0)"/>
     <use xlink:href="#DejaVuSans-7c" transform="translate(1906.005859 0)"/>
     <use xlink:href="#DejaVuSans-20" transform="translate(1939.697266 0)"/>
     <use xlink:href="#DejaVuSans-52" transform="translate(1971.484375 0)"/>
     <use xlink:href="#DejaVuSans-65" transform="translate(2036.466797 0)"/>
     <use xlink:href="#DejaVuSans-61" transform="translate(2097.990234 0)"/>
     <use xlink:href="#DejaVuSans-6c" transform="translate(2159.269531 0)"/>
     <use xlink:href="#DejaVuSans-2d" transform="translate(2187.052734 0)"/>
     <use xlink:href="#DejaVuSans-74" transform="translate(2223.136719 0)"/>
     <use xlink:href="#DejaVuSans-69" transform="translate(2262.345703 0)"/>
     <use xlink:href="#DejaVuSans-6d" transform="translate(2290.128906 0)"/>
     <use xlink:href="#DejaVuSans-65" transform="translate(2387.541016 0)"/>
    </g>
   </g>
  </g>
 </g>
 <defs>
  <clipPath id="pf97e9eb9bf">
   <rect x="7.2" y="7.2" width="842.4" height="698.4"/>
  </clipPath>
 </defs>
</svg>
